<?xml version="1.0" encoding="UTF-8"?>
<svg width="345px" height="131px" viewBox="0 0 345 131" version="1.1" xmlns="http://www.w3.org/2000/svg" xmlns:xlink="http://www.w3.org/1999/xlink">
    <!-- Generator: Sketch 59 (86127) - https://sketch.com -->
    <title>color-black</title>
    <desc>Created with Sketch.</desc>
    <g id="color-black" stroke="none" stroke-width="1" fill="none" fill-rule="evenodd">
        <g id="Group-2-Copy-3">
            <rect id="Rectangle-Copy" x="0" y="0" width="345" height="131"></rect>
            <g id="Group" transform="translate(40.000000, 40.000000)" fill="#ffffff">
                <g id="logo-combined-copy-2">
                    <path d="M51,0 L51,38 L38,38 L38,51 L21,51 L21,38 L13,38 L13,30 L0,30 L0,13 L13,13 L13,0 L51,0 Z M34,38 L25,38 L25,47 L34,47 L34,38 Z M26,17 L17,17 L17,34 L34,34 L34,25 L26,25 L26,17 Z M47,25 L38,25 L38,34 L47,34 L47,25 Z M13,17 L4,17 L4,26 L13,26 L13,17 Z M34,17 L30,17 L30,21 L34,21 L34,17 Z M47,4 L30,4 L30,13 L38,13 L38,21 L47,21 L47,4 Z M26,4 L17,4 L17,13 L26,13 L26,4 Z" id="Combined-Shape"></path>
                </g>
                <path d="M86.558804,15.7123849 L94.4624585,0 L103.117608,0 L90.5495017,23.3075742 L90.5495017,38.1586489 L82.5681063,38.1586489 L82.5681063,23.5685773 L70,0 L78.7069767,0 L86.558804,15.7123849 Z M126.206645,38.1586489 L125.144186,34.426305 L124.729568,34.426305 C123.883052,35.7835278 122.6824,36.8318796 121.127575,37.571392 C119.57275,38.3109044 117.802003,38.6806551 115.815282,38.6806551 C112.411943,38.6806551 109.84652,37.7628034 108.118937,35.9270727 C106.391353,34.0913419 105.527575,31.4508872 105.527575,28.0056295 L105.527575,8.97850563 L113.431229,8.97850563 L113.431229,26.0220061 C113.431229,28.1274414 113.802654,29.7064942 114.545515,30.7592119 C115.288376,31.8119295 116.471753,32.3382805 118.095681,32.3382805 C120.306988,32.3382805 121.904978,31.5944291 122.889701,30.1067042 C123.874424,28.6189793 124.366777,26.1525249 124.366777,22.7072671 L124.366777,8.97850563 L132.270432,8.97850563 L132.270432,38.1586489 L126.206645,38.1586489 Z M156.473754,38.6806551 C153.070415,38.6806551 150.401339,37.4365529 148.466445,34.9483112 L148.051827,34.9483112 L148.239934,36.6451814 C148.390942,38.0498296 148.466445,38.893617 148.466445,39.1765609 L148.466445,51 L140.562791,51 L140.562791,8.97850563 L146.989369,8.97850563 L148.103654,12.7630502 L148.466445,12.7630502 C150.314959,9.87460173 153.053138,8.43039918 156.681063,8.43039918 C160.101678,8.43039918 162.779392,9.76150153 164.714286,12.4237462 C166.649179,15.0859908 167.616611,18.7834973 167.616611,23.5163767 C167.616611,26.6310289 167.163127,29.3367337 166.256146,31.6335722 C165.349165,33.9304107 164.057816,35.6791138 162.38206,36.8797339 C160.706304,38.080354 158.736888,38.6806551 156.473754,38.6806551 Z M154.141528,14.7988741 C152.189359,14.7988741 150.764124,15.4035252 149.865781,16.6128454 C148.967437,17.8221657 148.500997,19.8188192 148.466445,22.6028659 L148.466445,23.464176 C148.466445,26.5962286 148.928567,28.8408325 149.852824,30.1980553 C150.777081,31.555278 152.241186,32.2338792 154.245183,32.2338792 C157.786729,32.2338792 159.557475,29.293274 159.557475,23.4119754 C159.557475,20.5409273 159.121267,18.3876735 158.248837,16.9521494 C157.376408,15.5166254 156.007318,14.7988741 154.141528,14.7988741 Z M192.545515,38.1586489 L191.016611,34.1914023 L190.809302,34.1914023 C189.479063,35.8792305 188.109974,37.0493826 186.701993,37.7018936 C185.294013,38.3544045 183.458483,38.6806551 181.195349,38.6806551 C178.41394,38.6806551 176.22426,37.8802537 174.626246,36.2794268 C173.028231,34.6786 172.229236,32.399196 172.229236,29.4411464 C172.229236,26.3438944 173.30464,24.0601404 175.455482,22.5898158 C177.606323,21.1194911 180.849812,20.3060397 185.186047,20.1494371 L190.213289,19.9928352 L190.213289,18.7139202 C190.213289,15.7558706 188.710314,14.276868 185.704319,14.276868 C183.389357,14.276868 180.668454,14.9815692 177.541528,16.3909928 L174.924252,11.0143296 C178.258488,9.25690012 181.955461,8.37819857 186.015282,8.37819857 C189.902345,8.37819857 192.882382,9.23080007 194.955482,10.9360287 C197.028582,12.6412572 198.065116,15.2338618 198.065116,18.7139202 L198.065116,38.1586489 L192.545515,38.1586489 Z M190.213289,24.6386899 L187.155482,24.7430911 C184.857796,24.8126923 183.147514,25.230293 182.024585,25.9959058 C180.901656,26.7615187 180.340199,27.9273207 180.340199,29.493347 C180.340199,31.7379846 181.618592,32.8602866 184.175415,32.8602866 C186.006654,32.8602866 187.470759,32.3295857 188.567774,31.2681679 C189.66479,30.2067501 190.213289,28.7973476 190.213289,27.0399181 L190.213289,24.6386899 Z M252.950166,8.37819857 C256.837229,8.37819857 259.817265,9.23080007 261.890365,10.9360287 C263.963466,12.6412572 265,15.2338618 265,18.7139202 L265,38.1586489 L259.480399,38.1586489 L257.951495,34.1914023 L257.744186,34.1914023 C256.413947,35.8792305 255.044858,37.0493826 253.636877,37.7018936 C252.228897,38.3544045 250.393367,38.6806551 248.130233,38.6806551 C245.348823,38.6806551 243.159144,37.8802537 241.56113,36.2794268 C239.963115,34.6786 239.16412,32.399196 239.16412,29.4411464 C239.16412,26.3438944 240.239524,24.0601404 242.390365,22.5898158 C244.541207,21.1194911 247.784696,20.3060397 252.12093,20.1494371 L257.148173,19.9928352 L257.148173,18.7139202 C257.148173,15.7558706 255.645198,14.276868 252.639203,14.276868 C250.324241,14.276868 247.603338,14.9815692 244.476412,16.3909928 L241.859136,11.0143296 C245.193372,9.25690012 248.890345,8.37819857 252.950166,8.37819857 Z M222.657143,8.43039918 C226.02593,8.43039918 228.582716,9.3482508 230.327575,11.1839816 C232.072434,13.0197124 232.94485,15.668867 232.94485,19.1315251 L232.94485,38.1586489 L225.041196,38.1586489 L225.041196,21.1151484 C225.041196,19.0097131 224.669771,17.4306603 223.92691,16.3779427 C223.184049,15.325225 222.000673,14.7988741 220.376744,14.7988741 C218.165437,14.7988741 216.567447,15.5427254 215.582724,17.0304504 C214.598002,18.5181753 214.105648,20.9846297 214.105648,24.4298874 L214.105648,38.1586489 L206.201993,38.1586489 L206.201993,8.97850563 L212.239867,8.97850563 L213.302326,12.7108495 L213.742857,12.7108495 C214.623925,11.3014259 215.837534,10.235674 217.383721,9.51356192 C218.929908,8.79144982 220.687698,8.43039918 222.657143,8.43039918 Z M257.148173,24.6386899 L254.090365,24.7430911 C251.79268,24.8126923 250.082398,25.230293 248.959468,25.9959058 C247.836539,26.7615187 247.275083,27.9273207 247.275083,29.493347 C247.275083,31.7379846 248.553476,32.8602866 251.110299,32.8602866 C252.941537,32.8602866 254.405642,32.3295857 255.502658,31.2681679 C256.599673,30.2067501 257.148173,28.7973476 257.148173,27.0399181 L257.148173,27.0399181 L257.148173,24.6386899 Z" id="Yupana" fill-rule="nonzero"></path>
            </g>
        </g>
    </g>
</svg>
